<svg width="171" height="59" viewBox="0 0 171 59" fill="none" xmlns="http://www.w3.org/2000/svg">
<g id="playstore">
<rect id="Rectangle 35" x="0.300781" y="0.138672" width="170.699" height="58.8617" fill="#1E1C19"/>
<g id="Google Play logo">
<g id="App Store">
<path d="M110.692 27.8061V30.0537H109.283V31.5276H110.692V36.5357C110.692 38.2458 111.466 38.9299 113.412 38.9299C113.754 38.9299 114.08 38.8892 114.365 38.8403V37.3826C114.121 37.4071 113.966 37.4234 113.697 37.4234C112.826 37.4234 112.443 37.0162 112.443 36.0879V31.5276H114.365V30.0537H112.443V27.8061H110.692Z" fill="white"/>
<path d="M119.323 39.052C121.912 39.052 123.5 37.3175 123.5 34.4429C123.5 31.5846 121.904 29.8419 119.323 29.8419C116.733 29.8419 115.137 31.5846 115.137 34.4429C115.137 37.3175 116.725 39.052 119.323 39.052ZM119.323 37.4966C117.8 37.4966 116.945 36.381 116.945 34.4429C116.945 32.5211 117.8 31.3973 119.323 31.3973C120.837 31.3973 121.701 32.5211 121.701 34.4429C121.701 36.3729 120.837 37.4966 119.323 37.4966Z" fill="white"/>
<path d="M124.859 38.881H126.61V33.6449C126.61 32.3989 127.546 31.5602 128.874 31.5602C129.183 31.5602 129.704 31.6172 129.851 31.666V29.9397C129.664 29.8908 129.33 29.8664 129.069 29.8664C127.913 29.8664 126.927 30.5015 126.675 31.3729H126.545V30.013H124.859V38.881Z" fill="white"/>
<path d="M134.198 31.3322C135.493 31.3322 136.34 32.2361 136.38 33.6286H131.902C131.999 32.2442 132.903 31.3322 134.198 31.3322ZM136.372 36.4869C136.047 37.1791 135.322 37.5618 134.263 37.5618C132.863 37.5618 131.959 36.5765 131.902 35.0211V34.9234H138.164V34.3126C138.164 31.5276 136.674 29.8419 134.206 29.8419C131.706 29.8419 130.118 31.6416 130.118 34.4755C130.118 37.3094 131.674 39.052 134.214 39.052C136.242 39.052 137.659 38.0748 138.058 36.4869H136.372Z" fill="white"/>
<path d="M99.2107 35.6062C99.3457 37.7838 101.16 39.1764 103.861 39.1764C106.748 39.1764 108.554 37.7163 108.554 35.3867C108.554 33.5552 107.524 32.5423 105.026 31.96L103.684 31.6308C102.097 31.2594 101.456 30.7614 101.456 29.8921C101.456 28.7949 102.452 28.0774 103.946 28.0774C105.364 28.0774 106.343 28.778 106.52 29.9005H108.36C108.25 27.8495 106.444 26.4062 103.971 26.4062C101.312 26.4062 99.5398 27.8495 99.5398 30.0187C99.5398 31.808 100.544 32.8715 102.747 33.3864L104.317 33.7662C105.929 34.146 106.638 34.7031 106.638 35.6315C106.638 36.7119 105.524 37.4968 104.005 37.4968C102.376 37.4968 101.245 36.7625 101.084 35.6062H99.2107Z" fill="white"/>
<path d="M81.0741 29.8664C79.8688 29.8664 78.8265 30.469 78.289 31.4787H78.1588V30.013H76.4731V41.8289H78.2239V37.5374H78.3623C78.8265 38.4738 79.8281 39.0276 81.0903 39.0276C83.3298 39.0276 84.7548 37.2605 84.7548 34.4429C84.7548 31.6253 83.3298 29.8664 81.0741 29.8664ZM80.5773 37.4559C79.1115 37.4559 78.1913 36.2996 78.1913 34.4511C78.1913 32.5944 79.1115 31.438 80.5855 31.438C82.0675 31.438 82.9552 32.5699 82.9552 34.4429C82.9552 36.324 82.0675 37.4559 80.5773 37.4559Z" fill="white"/>
<path d="M90.8812 29.8664C89.676 29.8664 88.6337 30.469 88.0962 31.4787H87.9659V30.013H86.2802V41.8289H88.031V37.5374H88.1695C88.6337 38.4738 89.6353 39.0276 90.8975 39.0276C93.1369 39.0276 94.562 37.2605 94.562 34.4429C94.562 31.6253 93.1369 29.8664 90.8812 29.8664ZM90.3845 37.4559C88.9187 37.4559 87.9985 36.2996 87.9985 34.4511C87.9985 32.5944 88.9187 31.438 90.3926 31.438C91.8747 31.438 92.7623 32.5699 92.7623 34.4429C92.7623 36.324 91.8747 37.4559 90.3845 37.4559Z" fill="white"/>
<path d="M73.3318 38.881H75.3406L70.9432 26.7017H68.9091L64.5117 38.881H66.453L67.5755 35.6484H72.2177L73.3318 38.881ZM69.8291 28.913H69.9726L71.7366 34.0616H68.0566L69.8291 28.913Z" fill="white"/>
</g>
<g id="Download on the">
<path d="M64.709 17.5156V23.391H66.8303C68.5811 23.391 69.595 22.3121 69.595 20.435C69.595 18.5865 68.573 17.5156 66.8303 17.5156H64.709ZM65.621 18.3463H66.7285C67.9459 18.3463 68.6666 19.1199 68.6666 20.4472C68.6666 21.795 67.9582 22.5604 66.7285 22.5604H65.621V18.3463Z" fill="white"/>
<path d="M72.7 23.4766C73.9948 23.4766 74.7888 22.6093 74.7888 21.172C74.7888 19.7428 73.9907 18.8715 72.7 18.8715C71.4052 18.8715 70.6072 19.7428 70.6072 21.172C70.6072 22.6093 71.4012 23.4766 72.7 23.4766ZM72.7 22.6989C71.9386 22.6989 71.5111 22.141 71.5111 21.172C71.5111 20.2111 71.9386 19.6492 72.7 19.6492C73.4573 19.6492 73.8889 20.2111 73.8889 21.172C73.8889 22.137 73.4573 22.6989 72.7 22.6989Z" fill="white"/>
<path d="M81.5502 18.957H80.6748L79.8849 22.3406H79.8156L78.9036 18.957H78.0648L77.1528 22.3406H77.0876L76.2937 18.957H75.406L76.6275 23.391H77.5274L78.4394 20.1256H78.5086L79.4248 23.391H80.3327L81.5502 18.957Z" fill="white"/>
<path d="M82.5583 23.391H83.4337V20.7974C83.4337 20.1052 83.8449 19.6736 84.4923 19.6736C85.1397 19.6736 85.4492 20.0279 85.4492 20.7404V23.391H86.3246V20.5205C86.3246 19.466 85.779 18.8715 84.7896 18.8715C84.1218 18.8715 83.6821 19.1687 83.4663 19.6614H83.4011V18.957H82.5583V23.391Z" fill="white"/>
<path d="M87.7032 23.391H88.5786V17.2266H87.7032V23.391Z" fill="white"/>
<path d="M91.871 23.4766C93.1658 23.4766 93.9597 22.6093 93.9597 21.172C93.9597 19.7428 93.1617 18.8715 91.871 18.8715C90.5762 18.8715 89.7782 19.7428 89.7782 21.172C89.7782 22.6093 90.5721 23.4766 91.871 23.4766ZM91.871 22.6989C91.1096 22.6989 90.6821 22.141 90.6821 21.172C90.6821 20.2111 91.1096 19.6492 91.871 19.6492C92.6283 19.6492 93.0599 20.2111 93.0599 21.172C93.0599 22.137 92.6283 22.6989 91.871 22.6989Z" fill="white"/>
<path d="M96.568 22.7274C96.0917 22.7274 95.7456 22.4953 95.7456 22.0963C95.7456 21.7054 96.0224 21.4977 96.6332 21.457L97.7162 21.3878V21.7583C97.7162 22.308 97.2276 22.7274 96.568 22.7274ZM96.3441 23.4643C96.9263 23.4643 97.4109 23.2119 97.6755 22.7681H97.7448V23.391H98.5876V20.3617C98.5876 19.4253 97.9605 18.8715 96.849 18.8715C95.8433 18.8715 95.1267 19.3601 95.0371 20.1215H95.884C95.9817 19.808 96.3197 19.6288 96.8083 19.6288C97.4068 19.6288 97.7162 19.8935 97.7162 20.3617V20.7445L96.5151 20.8137C95.4606 20.8788 94.8661 21.3389 94.8661 22.137C94.8661 22.9472 95.4891 23.4643 96.3441 23.4643Z" fill="white"/>
<path d="M101.558 23.4643C102.169 23.4643 102.686 23.1752 102.951 22.6907H103.02V23.391H103.859V17.2266H102.983V19.6614H102.918C102.678 19.1728 102.165 18.8837 101.558 18.8837C100.439 18.8837 99.7179 19.7713 99.7179 21.172C99.7179 22.5767 100.43 23.4643 101.558 23.4643ZM101.807 19.6696C102.54 19.6696 103 20.2518 103 21.1761C103 22.1044 102.544 22.6785 101.807 22.6785C101.066 22.6785 100.622 22.1125 100.622 21.172C100.622 20.2396 101.07 19.6696 101.807 19.6696Z" fill="white"/>
<path d="M109.535 23.4766C110.83 23.4766 111.624 22.6093 111.624 21.172C111.624 19.7428 110.826 18.8715 109.535 18.8715C108.241 18.8715 107.443 19.7428 107.443 21.172C107.443 22.6093 108.237 23.4766 109.535 23.4766ZM109.535 22.6989C108.774 22.6989 108.347 22.141 108.347 21.172C108.347 20.2111 108.774 19.6492 109.535 19.6492C110.293 19.6492 110.724 20.2111 110.724 21.172C110.724 22.137 110.293 22.6989 109.535 22.6989Z" fill="white"/>
<path d="M112.783 23.391H113.658V20.7974C113.658 20.1052 114.07 19.6736 114.717 19.6736C115.364 19.6736 115.674 20.0279 115.674 20.7404V23.391H116.549V20.5205C116.549 19.466 116.004 18.8715 115.014 18.8715C114.347 18.8715 113.907 19.1687 113.691 19.6614H113.626V18.957H112.783V23.391Z" fill="white"/>
<path d="M120.581 17.8536V18.9774H119.877V19.7143H120.581V22.2184C120.581 23.0735 120.968 23.4155 121.941 23.4155C122.112 23.4155 122.275 23.3951 122.417 23.3707V22.6419C122.295 22.6541 122.218 22.6622 122.083 22.6622C121.648 22.6622 121.456 22.4586 121.456 21.9945V19.7143H122.417V18.9774H121.456V17.8536H120.581Z" fill="white"/>
<path d="M123.592 23.391H124.468V20.8015C124.468 20.1297 124.867 19.6777 125.583 19.6777C126.202 19.6777 126.532 20.036 126.532 20.7445V23.391H127.408V20.5287C127.408 19.4741 126.825 18.8756 125.881 18.8756C125.213 18.8756 124.745 19.1728 124.529 19.6696H124.46V17.2266H123.592V23.391Z" fill="white"/>
<path d="M130.566 19.6166C131.213 19.6166 131.636 20.0686 131.657 20.7648H129.417C129.466 20.0726 129.918 19.6166 130.566 19.6166ZM131.653 22.194C131.49 22.5401 131.127 22.7314 130.598 22.7314C129.898 22.7314 129.446 22.2388 129.417 21.4611V21.4122H132.548V21.1068C132.548 19.7143 131.803 18.8715 130.57 18.8715C129.32 18.8715 128.526 19.7713 128.526 21.1883C128.526 22.6052 129.303 23.4766 130.574 23.4766C131.588 23.4766 132.296 22.988 132.495 22.194H131.653Z" fill="white"/>
</g>
<g id="Apple logo">
<path d="M51.6553 27.709C51.6817 25.6611 52.7814 23.7235 54.5261 22.6509C53.4255 21.079 51.5819 20.0823 49.664 20.0223C47.6183 19.8076 45.6351 21.2464 44.5926 21.2464C43.53 21.2464 41.925 20.0436 40.1967 20.0792C37.9439 20.152 35.8437 21.4328 34.7477 23.4023C32.3917 27.4815 34.1491 33.4764 36.4059 36.7736C37.5351 38.3882 38.8548 40.1917 40.5816 40.1277C42.2713 40.0577 42.9024 39.0502 44.942 39.0502C46.9628 39.0502 47.5549 40.1277 49.3167 40.0871C51.1298 40.0576 52.2722 38.4653 53.3618 36.8355C54.1731 35.685 54.7974 34.4136 55.2115 33.0681C53.0807 32.1669 51.6578 30.0225 51.6553 27.709Z" fill="white"/>
<path d="M48.3275 17.8539C49.3161 16.6671 49.8032 15.1417 49.6852 13.6016C48.1748 13.7602 46.7797 14.4821 45.7777 15.6233C44.7979 16.7384 44.288 18.237 44.3844 19.7182C45.8953 19.7338 47.3807 19.0315 48.3275 17.8539Z" fill="white"/>
</g>
</g>
</g>
</svg>
