<svg width="171" height="59" viewBox="0 0 171 59" fill="none" xmlns="http://www.w3.org/2000/svg">
<g id="playstore">
<rect id="Rectangle 35" y="0.138672" width="170.699" height="58.8617" fill="#1E1C19"/>
<path id="Google Play" d="M126.365 40.2931H128.166V28.0495H126.365V40.2931ZM142.582 32.4601L140.518 37.7682H140.457L138.314 32.4601H136.375L139.588 39.8788L137.756 44.0059H139.633L144.584 32.4601H142.582ZM132.371 38.9025C131.782 38.9025 130.959 38.6029 130.959 37.8627C130.959 36.9177 131.984 36.5554 132.868 36.5554C133.659 36.5554 134.032 36.7284 134.513 36.9648C134.373 38.0991 133.411 38.9025 132.371 38.9025ZM132.589 32.1923C131.285 32.1923 129.935 32.7753 129.377 34.0669L130.975 34.744C131.316 34.0669 131.952 33.8465 132.62 33.8465C133.551 33.8465 134.497 34.4131 134.513 35.4215V35.5474C134.187 35.3584 133.488 35.0749 132.635 35.0749C130.912 35.0749 129.159 36.0355 129.159 37.8313C129.159 39.4694 130.571 40.5249 132.154 40.5249C133.364 40.5249 134.032 39.9736 134.45 39.3275H134.513V40.2732H136.252V35.5787C136.252 33.405 134.652 32.1923 132.589 32.1923ZM121.462 33.9505H118.901V29.7538H121.462C122.808 29.7538 123.572 30.8847 123.572 31.8521C123.572 32.8009 122.808 33.9505 121.462 33.9505ZM121.416 28.0495H117.101V40.2931H118.901V35.6545H121.416C123.411 35.6545 125.373 34.1885 125.373 31.8521C125.373 29.5162 123.411 28.0495 121.416 28.0495ZM97.8905 38.9047C96.6467 38.9047 95.6057 37.8473 95.6057 36.3963C95.6057 34.9284 96.6467 33.856 97.8905 33.856C99.1185 33.856 100.082 34.9284 100.082 36.3963C100.082 37.8473 99.1185 38.9047 97.8905 38.9047ZM99.9579 33.1457H99.8956C99.4916 32.6567 98.7141 32.2149 97.7353 32.2149C95.683 32.2149 93.8022 34.0454 93.8022 36.3963C93.8022 38.7311 95.683 40.5456 97.7353 40.5456C98.7141 40.5456 99.4916 40.1037 99.8956 39.5991H99.9579V40.1982C99.9579 41.7924 99.1185 42.644 97.7662 42.644C96.6629 42.644 95.9789 41.8394 95.6988 41.1611L94.129 41.8237C94.5795 42.9278 95.7761 44.2852 97.7662 44.2852C99.8806 44.2852 101.668 43.0227 101.668 39.9457V32.4674H99.9579V33.1457ZM102.912 40.2931H104.714V28.0495H102.912V40.2931ZM107.373 36.254C107.326 34.6445 108.601 33.8243 109.518 33.8243C110.233 33.8243 110.839 34.1873 111.042 34.7077L107.373 36.254ZM112.969 34.8653C112.627 33.9349 111.585 32.2149 109.456 32.2149C107.341 32.2149 105.585 33.9031 105.585 36.3802C105.585 38.7154 107.326 40.5456 109.658 40.5456C111.538 40.5456 112.627 39.3784 113.078 38.6997L111.679 37.7528C111.212 38.4472 110.575 38.9047 109.658 38.9047C108.741 38.9047 108.088 38.4786 107.669 37.6423L113.155 35.3389L112.969 34.8653ZM69.2522 33.493V35.26H73.418C73.2936 36.254 72.9672 36.9797 72.4697 37.4847C71.8633 38.0998 70.915 38.7785 69.2522 38.7785C66.6872 38.7785 64.6821 36.6801 64.6821 34.0768C64.6821 31.4734 66.6872 29.3747 69.2522 29.3747C70.6357 29.3747 71.6458 29.9271 72.3921 30.6371L73.6205 29.3904C72.5787 28.3808 71.1954 27.6077 69.2522 27.6077C65.7386 27.6077 62.7852 30.5109 62.7852 34.0768C62.7852 37.6423 65.7386 40.5456 69.2522 40.5456C71.1483 40.5456 72.5787 39.9144 73.6977 38.7311C74.8481 37.5635 75.2057 35.9227 75.2057 34.5971C75.2057 34.1873 75.1744 33.8086 75.1123 33.493H69.2522ZM79.942 38.9047C78.6981 38.9047 77.6255 37.8634 77.6255 36.3802C77.6255 34.8813 78.6981 33.856 79.942 33.856C81.1853 33.856 82.2579 34.8813 82.2579 36.3802C82.2579 37.8634 81.1853 38.9047 79.942 38.9047ZM79.942 32.2149C77.6718 32.2149 75.8223 33.9662 75.8223 36.3802C75.8223 38.7785 77.6718 40.5456 79.942 40.5456C82.2112 40.5456 84.0611 38.7785 84.0611 36.3802C84.0611 33.9662 82.2112 32.2149 79.942 32.2149ZM88.9277 38.9047C87.6847 38.9047 86.6117 37.8634 86.6117 36.3802C86.6117 34.8813 87.6847 33.856 88.9277 33.856C90.1715 33.856 91.2438 34.8813 91.2438 36.3802C91.2438 37.8634 90.1715 38.9047 88.9277 38.9047ZM88.9277 32.2149C86.6584 32.2149 84.8089 33.9662 84.8089 36.3802C84.8089 38.7785 86.6584 40.5456 88.9277 40.5456C91.1978 40.5456 93.0473 38.7785 93.0473 36.3802C93.0473 33.9662 91.1978 32.2149 88.9277 32.2149Z" fill="white"/>
<path id="Get it on" d="M66.1189 22.9844C65.1925 22.9844 64.3958 22.6573 63.7534 22.0127C63.1107 21.3676 62.7852 20.56 62.7852 19.6209C62.7852 18.6817 63.1108 17.8755 63.7534 17.229C64.3958 16.5843 65.1925 16.2573 66.1189 16.2573C66.5908 16.2573 67.0312 16.3391 67.4521 16.5095C67.8732 16.6798 68.2177 16.9163 68.489 17.2258L68.5529 17.2989L67.8303 18.024L67.7581 17.9348C67.5782 17.713 67.3494 17.5406 67.0594 17.4154C66.7706 17.2904 66.4542 17.2327 66.1189 17.2327C65.4664 17.2327 64.9251 17.4551 64.473 17.9071C64.0312 18.3683 63.8087 18.9299 63.8087 19.6209C63.8087 20.3123 64.0311 20.8739 64.4734 21.3352C64.9254 21.7871 65.4668 22.0106 66.1188 22.0106C66.7161 22.0106 67.2101 21.8433 67.5984 21.512C67.96 21.2037 68.1771 20.7871 68.2539 20.256H66.0155V19.3001H69.2213L69.235 19.3876C69.2613 19.5556 69.2798 19.7178 69.2798 19.8736C69.2798 20.7655 69.0089 21.4936 68.4773 22.0293C67.8772 22.6677 67.088 22.9844 66.1189 22.9844ZM93.9552 22.9844C93.0275 22.9844 92.24 22.6571 91.6059 22.0127C90.9709 21.3752 90.6554 20.5669 90.6554 19.6208C90.6554 18.6748 90.9705 17.8669 91.6055 17.2294C92.2396 16.5849 93.0275 16.2573 93.9552 16.2573C94.8811 16.2573 95.6688 16.5846 96.3029 17.2387C96.9381 17.8761 97.2534 18.6824 97.2534 19.6208C97.2534 20.5669 96.9383 21.3747 96.3033 22.0122C95.6688 22.6571 94.8736 22.9844 93.9552 22.9844ZM70.1972 22.845V16.3967H70.3005H74.0346V17.372H71.2029V19.1429H73.7569V20.0988H71.2029V21.8713H74.0346V22.845H70.1972ZM76.3831 22.845V17.372H74.646V16.3967H79.1259V17.372H79.0226H77.3888V22.845H76.3831ZM81.989 22.845V16.3967H82.9948V16.5004V22.845H81.989ZM85.5265 22.845V17.372H83.7895V16.3967H88.2694V17.372H88.166H86.5323V22.845H85.5265ZM98.1461 22.845V16.3967H99.2802L102.167 21.0341L102.142 20.1537V16.3967H103.147V22.845H102.152L99.1271 17.9733L99.1519 18.8531V18.8545V22.845H98.1461ZM93.9552 22.0106C94.6077 22.0106 95.1403 21.7873 95.5744 21.336L95.5751 21.3352C96.0154 20.8932 96.2315 20.3235 96.2315 19.6208C96.2315 18.9199 96.0159 18.3489 95.5757 17.9071L95.5744 17.9058C95.1403 17.4546 94.6078 17.2326 93.9552 17.2326C93.3015 17.2326 92.769 17.4542 92.3267 17.9054C91.8945 18.358 91.6789 18.9201 91.6789 19.6208C91.6789 20.3232 91.894 20.8831 92.3263 21.3358C92.7687 21.787 93.3017 22.0106 93.9552 22.0106Z" fill="white"/>
<g id="Google Play logo">
<path id="Vector" d="M41.9328 29.142L31.4883 40.2277C31.4887 40.2299 31.4895 40.2319 31.4899 40.2342C31.8102 41.4378 32.9096 42.3242 34.2145 42.3242C34.7361 42.3242 35.2258 42.1832 35.6458 41.9356L35.6791 41.9161L47.4358 35.1321L41.9328 29.142Z" fill="#EA4335"/>
<path id="Vector_2" d="M52.4993 27.2543L52.4893 27.2474L47.4136 24.305L41.6953 29.3934L47.4335 35.1309L52.4824 32.2177C53.3676 31.7398 53.9685 30.8067 53.9685 29.7306C53.9685 28.6622 53.3756 27.7337 52.4993 27.2543Z" fill="#FBBC04"/>
<path id="Vector_3" d="M31.4884 19.1885C31.4256 19.42 31.3926 19.6625 31.3926 19.9143V39.5031C31.3926 39.7545 31.4252 39.9978 31.4888 40.2285L42.2927 29.4265L31.4884 19.1885Z" fill="#4285F4"/>
<path id="Vector_4" d="M42.0102 29.707L47.4163 24.3025L35.673 17.494C35.2461 17.2383 34.7479 17.0908 34.2149 17.0908C32.91 17.0908 31.8091 17.9787 31.4887 19.1839C31.4883 19.1851 31.4883 19.1859 31.4883 19.187L42.0102 29.707Z" fill="#34A853"/>
</g>
</g>
</svg>
